<svg xmlns="http://www.w3.org/2000/svg" width="148.28" height="104.532" viewBox="0 0 148.28 104.532">
  <defs>
    <style>
      .cls-1 {
        fill: #ff6000;
        fill-rule: evenodd;
      }
    </style>
  </defs>
  <path class="cls-1" d="M1684.47,86.838c1.38-2.208,2.75-4.383,4.11-6.555,3.18-5.048,6.35-10.1,9.56-15.13a1.215,1.215,0,0,1,.87-0.511q12.855-.041,25.71-0.021c0.12,0,.24.022,0.5,0.047-0.44.7-.82,1.322-1.21,1.938q-12.33,19.441-24.68,38.879c-1.95,3.076-3.95,6.123-5.9,9.2a1.4,1.4,0,0,0-.16,1.016c2.62,8.141,5.2,16.293,7.93,24.4a23.356,23.356,0,0,0,5.05,8.68,17.569,17.569,0,0,0,9.94,5.123,39.741,39.741,0,0,0,10.87.232,14,14,0,0,1,2.79-.015c-0.83.9-1.61,1.851-2.49,2.705a27.159,27.159,0,0,1-17.87,8.048,28.527,28.527,0,0,1-12.96-2.037,26.478,26.478,0,0,1-12.49-11.2,48.187,48.187,0,0,1-5.5-14.168c-0.03-.146-0.06-0.294-0.1-0.439a0.9,0.9,0,0,0-.13-0.2c-0.24.251-.46,0.49-0.69,0.729A127.318,127.318,0,0,1,1660,152.83a64.952,64.952,0,0,1-26.83,11.41,59.549,59.549,0,0,1-10.04.937,50.3,50.3,0,0,1-17.38-2.4,36.791,36.791,0,0,1-15.14-9.491,32.4,32.4,0,0,1-8.35-16.449,45,45,0,0,1,.66-18.77,65.541,65.541,0,0,1,8.88-20.5,87.471,87.471,0,0,1,12.27-15.156,82.073,82.073,0,0,1,17.86-13.752,62.583,62.583,0,0,1,24.28-7.713,39.192,39.192,0,0,1,14.55.9,29.983,29.983,0,0,1,12.32,6.817c4.96,4.478,8.11,10.125,10.55,16.232,0.24,0.6.47,1.206,0.71,1.809A0.926,0.926,0,0,0,1684.47,86.838Zm-63.46,66.04a21.754,21.754,0,0,0,6.15-1.129,45.212,45.212,0,0,0,13.52-7.719,97.523,97.523,0,0,0,14.61-14.431,194.658,194.658,0,0,0,13.53-18.655,2.114,2.114,0,0,0,.36-1.663,136.616,136.616,0,0,0-4.94-19.631,39.172,39.172,0,0,0-5.83-11.742c-2.38-3.052-5.31-5.287-9.24-5.869a19.935,19.935,0,0,0-12.22,2.318c-4.95,2.54-8.87,6.359-12.4,10.571a99.862,99.862,0,0,0-14.1,22.688,61.06,61.06,0,0,0-5.94,23.241,31.3,31.3,0,0,0,1.64,12C1608.46,149.274,1613.53,152.877,1621.01,152.878Z" transform="translate(-1581.56 -60.656)"/>
</svg>
