<svg xmlns="http://www.w3.org/2000/svg" width="167.812" height="65.781" viewBox="0 0 167.812 65.781">
  <defs>
    <style>
      .cls-1 {
        fill: #fff;
        fill-rule: evenodd;
      }
    </style>
  </defs>
  <path class="cls-1" d="M172.484,103.19H186.84v4.9h6.165v-4.9h6.106a17,17,0,1,0-1.286-6.484c0,0.556.028,1.105,0.08,1.648h-4.9V85.444h-8.22l-12.3,13.786v3.96Zm42.342-18.2a11.715,11.715,0,1,1-11.712,11.715A11.727,11.727,0,0,1,214.826,84.99ZM186.84,89.676v8.677h-7.707Zm-23.393,24.036a16.994,16.994,0,0,0,14.086-7.5h-7.257a11.712,11.712,0,1,1,4.118-13.665l3.812-4.273a17,17,0,0,0-30.665,14.431H125.79c0-.484.786-1.24,5.229-2.358,1.058-.273,2.387-0.575,3.6-0.847,6.256-1.451,8.432-3.084,8.432-6.984V92.276c0-3.84-2.478-6.954-10.517-6.954h-1.36c-9.067,0-10.578,5.109-10.578,8.163V93.7h6.5c0.091-1.088.453-3.567,4.866-3.567,3.717,0,4.5.968,4.5,2.177,0,1.119-.786,1.723-3.778,2.6L129.085,96c-8.463,2.661-8.886,5.623-8.886,8.828v3.265h30.628A16.96,16.96,0,0,0,163.447,113.712Zm2.6,3.877-4.926,16.235-4.745-16.235h-7.254l-4.714,16.174-6.145-20.051h-6.824l9.07,26.37h7.223l4.775-15.752,4.776,15.752h7.434l7.465-22.493h-6.135Zm66.943,17.5c0-3.295-1.843-5.139-4.9-5.835,2.811-.634,4.745-2.539,4.745-5.351v-0.3c0-2.449-.967-6.016-9.52-6.016h-17.71l2.569,4.96,14.9,0c2.539,0,3.234,1.028,3.234,2.328v0.06c0,1.3-.695,2.388-3.234,2.388h-14.9v12.759H214.4v-7.649h8.1c3.143,0,4.2,1.33,4.2,4.232v1.845a3.548,3.548,0,0,0,.212,1.572h6.437v-0.151a4.683,4.683,0,0,1-.363-2.51v-2.328Zm11.062-17.5h-6.226v22.493H257.8v-5.291H244.051v-17.2Zm29.527,0H259.494l2.569,5,11.243-.007c7.5,0,8.22,3.537,8.22,6.077v0.181c0,2.54-.665,6.228-8.22,6.228h-5.017v-7.67h-6.226v12.689h11.545c12.331,0,14.386-6.41,14.386-11.126v-0.907C287.994,123.484,285.3,117.589,273.578,117.589Zm-84.442-6.145a17.007,17.007,0,1,0,17,17.006A17.022,17.022,0,0,0,189.136,111.444Zm0,28.722a11.716,11.716,0,1,1,11.711-11.716A11.727,11.727,0,0,1,189.136,140.166Z" transform="translate(-120.188 -79.688)"/>
</svg>
