<svg xmlns="http://www.w3.org/2000/svg" width="40" height="40" viewBox="0 0 40 40">
  <defs>
    <style>
      .cls-1 {
        fill: #fff;
        fill-rule: evenodd;
      }
    </style>
  </defs>
  <path class="cls-1" d="M157.1,891.25a28.761,28.761,0,0,1,6.25-3.375A18.613,18.613,0,0,1,170,886.7a18.814,18.814,0,0,1,6.675,1.175,28.547,28.547,0,0,1,6.275,3.375,17.556,17.556,0,0,0,3.125-5.45A18.061,18.061,0,0,0,187,880a17,17,0,1,0-34,0,17.646,17.646,0,0,0,.95,5.8A17.984,17.984,0,0,0,157.1,891.25ZM170,883.5a6.746,6.746,0,1,1,4.875-1.975A6.623,6.623,0,0,1,170,883.5Zm0,16.5a19.352,19.352,0,0,1-7.75-1.575,20.15,20.15,0,0,1-10.675-10.675,19.916,19.916,0,0,1,0-15.525,20.218,20.218,0,0,1,10.675-10.65,19.916,19.916,0,0,1,15.525,0,20.286,20.286,0,0,1,10.65,10.65,19.916,19.916,0,0,1,0,15.525,20.218,20.218,0,0,1-10.65,10.675A19.3,19.3,0,0,1,170,900Zm0-3a18.35,18.35,0,0,0,5.375-.8,15.973,15.973,0,0,0,5.175-2.8,21.744,21.744,0,0,0-5.2-2.75,15.539,15.539,0,0,0-10.7,0,21.744,21.744,0,0,0-5.2,2.75,15.973,15.973,0,0,0,5.175,2.8A18.35,18.35,0,0,0,170,897Zm0-16.5a3.684,3.684,0,1,0-2.775-1.075A3.755,3.755,0,0,0,170,880.5Z" transform="translate(-150 -860)"/>
</svg>
